<svg xmlns="http://www.w3.org/2000/svg" version="1.1" id="Layer_1" x="0px" y="0px" width="882.750" viewBox="185.250 171.250 882.750 885.250" xml:space="preserve" height="885.250">
<path fill="#E47150" opacity="1.000000" stroke="none" d=" M493.114014,825.860229   C552.252380,827.858093 609.996216,822.064880 666.314880,805.009644   C681.268372,800.481201 695.791321,794.547729 710.647888,789.673706   C715.627380,788.040100 721.012146,787.040649 726.241455,786.905457   C734.987427,786.679504 740.779602,792.420898 739.757019,801.104736   C739.020508,807.359131 736.884521,813.847961 733.807922,819.358398   C720.607422,843.001526 702.525940,862.803589 683.137207,881.463806   C643.154053,919.944397 597.921265,951.290161 549.967834,978.848999   C535.112732,987.386230 520.248108,996.167542 504.576691,1002.967712   C474.412415,1016.056763 443.127563,1019.013550 411.610291,1007.676819   C390.754852,1000.175232 373.341156,986.925964 357.018341,972.282654   C332.107208,949.934814 310.399109,924.710815 291.289246,897.288635   C279.488617,880.354797 270.849609,862.153442 271.802979,840.729736   C273.083130,811.962463 295.046265,793.671021 323.479462,798.635864   C339.175354,801.376526 354.604767,805.652100 370.143677,809.281189   C410.446838,818.693787 451.297638,824.041992 493.114014,825.860229  z" />
<path fill="#E47250" opacity="1.000000" stroke="none" d=" M897.286011,793.722290   C900.918335,822.718079 904.873047,851.244995 907.869141,879.872253   C909.283997,893.390808 909.779541,907.149109 909.079773,920.715637   C907.635742,948.711365 894.604553,971.191040 873.572144,989.273132   C847.210327,1011.936951 816.390991,1026.259766 783.690491,1036.940308   C750.758667,1047.696289 717.000061,1054.438843 682.336792,1055.368896   C673.376465,1055.609253 663.872925,1054.172241 655.419922,1051.215576   C631.647095,1042.900269 620.226685,1018.375916 627.377563,993.593628   C631.457458,979.453796 639.979919,968.282043 651.019409,959.048584   C700.545288,917.624878 741.409424,869.147339 771.483459,811.841003   C795.029358,766.974182 811.130615,719.565979 820.096558,669.679993   C821.287231,663.054932 823.446472,656.362366 826.470337,650.362915   C831.502319,640.379395 840.945496,638.942078 848.384155,647.300354   C853.492920,653.040649 857.621521,659.960693 860.920044,666.951721   C875.860046,698.615906 884.705750,732.257202 892.028381,766.335938   C893.950317,775.280640 895.496460,784.306091 897.286011,793.722290  z" />
<path fill="#E47250" opacity="1.000000" stroke="none" d=" M935.853088,810.048462   C931.515320,794.123901 927.101929,778.603271 923.172791,762.961121   C900.634277,673.231689 863.449585,590.811157 802.644226,520.063660   C797.999939,514.660034 793.879028,508.739166 790.061768,502.712341   C786.642090,497.313324 785.009277,491.165466 788.758057,485.251770   C792.740845,478.968994 799.627258,477.423553 806.005615,478.802124   C821.087830,482.061798 836.252686,485.512543 850.800293,490.566437   C897.261047,506.706970 941.854370,527.374573 986.393921,548.112244   C996.658691,552.891602 1006.994202,557.531982 1017.131653,562.569275   C1045.745239,576.787292 1063.378174,599.126953 1066.470825,631.500793   C1068.380127,651.486694 1064.293823,670.941895 1056.335205,688.992920   C1044.329834,716.222534 1030.999634,742.888916 1017.588684,769.469788   C1010.178223,784.157654 1002.047546,798.570557 993.050415,812.328491   C989.129395,818.324341 982.811462,823.367737 976.537903,827.078125   C964.587097,834.146240 951.319458,831.130432 942.492859,820.426636   C939.975769,817.374390 938.146057,813.755371 935.853088,810.048462  z" />
<path fill="#E47250" opacity="1.000000" stroke="none" d=" M360.962097,628.029175   C398.166016,677.772156 442.019257,720.342407 490.808960,758.041321   C496.089264,762.121216 500.759277,767.525818 504.297638,773.198364   C509.455383,781.467224 506.559265,789.584229 497.513794,793.110718   C492.528015,795.054443 486.885529,796.105469 481.524078,796.163391   C450.119751,796.502502 419.573669,790.505981 389.377045,782.569092   C339.081665,769.349426 290.904999,750.413757 244.470261,727.170410   C204.715134,707.270569 183.870743,668.685974 186.590393,624.294189   C188.579819,591.821594 198.945160,561.751404 210.662704,531.942810   C214.376175,522.495972 218.022873,512.972961 222.570236,503.921936   C225.433990,498.221985 229.234573,492.633331 233.795425,488.212799   C247.430588,474.997101 265.869781,476.050598 278.231812,490.495819   C282.088257,495.002136 285.452759,500.124207 288.109802,505.431335   C308.722656,546.602356 330.719330,586.939270 358.064697,624.135132   C358.952820,625.343201 359.862488,626.535522 360.962097,628.029175  z" />
<path fill="#E47250" opacity="1.000000" stroke="none" d=" M787.824036,441.135376   C755.622131,434.128571 723.527405,429.640808 690.962585,428.726379   C676.488281,428.319946 661.995239,427.992401 647.562256,426.929413   C639.196899,426.313324 631.043030,423.499878 628.091370,414.527832   C625.197205,405.730652 629.959534,398.510895 636.371338,393.553528   C648.587585,384.108459 661.144470,374.942444 674.351624,366.972443   C707.361389,347.052246 742.636108,331.543610 777.696777,315.678680   C796.972351,306.956421 816.183594,298.058014 835.721130,289.955872   C871.806213,274.991486 905.343750,280.215088 933.197632,307.463959   C959.926453,333.612244 980.311829,364.844849 995.326782,399.189545   C1002.244324,415.012360 1004.151428,431.903534 1001.045227,449.134583   C995.378906,480.566681 971.344360,497.104828 940.480469,489.294464   C924.086426,485.145813 908.253235,478.683228 892.308716,472.875702   C858.181641,460.445526 823.702332,449.220551 787.824036,441.135376  z" />
<path fill="#E37150" opacity="1.000000" stroke="none" d=" M644.948242,343.942383   C593.274292,375.269501 549.215271,414.830597 510.402344,460.462952   C506.524811,465.021820 502.370605,469.380615 498.018738,473.486664   C495.639069,475.731964 492.759155,477.650787 489.784485,479.021790   C482.202332,482.516205 475.992554,479.747192 473.004242,471.949615   C469.684113,463.286377 471.116638,454.509857 472.606110,445.812225   C483.359650,383.018097 502.056976,322.480835 525.024719,263.201294   C530.671204,248.627808 536.263367,233.876129 543.675842,220.177902   C557.607483,194.432297 579.327393,178.296738 608.581177,173.483978   C628.049194,170.281128 646.737366,174.246323 664.704773,181.606354   C693.657288,193.466293 722.477417,205.650452 751.326721,217.761154   C760.794250,221.735565 769.479248,226.878128 775.865967,235.230225   C787.044678,249.848907 785.108765,267.273468 770.437744,278.406799   C764.796570,282.687683 758.396912,286.179016 751.931763,289.129333   C715.546204,305.733856 679.407898,322.792419 644.948242,343.942383  z" />
<path fill="#E37150" opacity="1.000000" stroke="none" d=" M314.923126,314.925049   C331.157806,294.514465 349.583618,277.087341 372.097565,264.339905   C386.111938,256.404938 400.945038,251.471756 417.368958,252.893295   C439.950439,254.847794 457.410553,271.570435 461.086700,294.186646   C463.342499,308.064880 460.017578,321.314270 457.818237,334.754333   C451.103638,375.786713 444.088440,416.775726 437.960266,457.896393   C432.552246,494.184540 430.821075,530.797241 431.276306,567.475769   C431.466370,582.788391 432.633484,598.087952 432.886414,613.401245   C432.955780,617.601135 431.899689,622.053772 430.354156,625.996033   C427.412384,633.499695 420.372772,636.627747 413.237518,632.895508   C407.322968,629.801697 401.530212,625.678284 397.059326,620.760315   C378.466370,600.307983 364.269348,576.746033 350.579651,552.874023   C327.141602,512.003052 308.240387,469.025879 291.744781,424.985718   C280.994995,396.285828 282.596954,368.038025 297.823334,341.144958   C302.896332,332.184998 309.048584,323.836060 314.923126,314.925049  z" />
<path fill="#E47352" opacity="1.000000" stroke="none" d=" M704.257935,720.250122   C647.546631,753.897949 574.284485,745.517944 530.134827,700.260864   C520.328186,690.208191 511.475342,679.210815 508.976044,664.724670   C506.162323,648.415894 519.451843,637.220825 534.924805,643.158813   C540.583069,645.330200 545.778381,648.930481 550.848450,652.374390   C575.324707,669.000000 601.945740,678.637573 631.865540,677.996399   C660.403687,677.384827 685.937927,668.002686 709.294312,651.932190   C714.199890,648.556824 719.319031,645.099243 724.853394,643.105103   C740.566833,637.443481 753.674683,649.146301 750.487122,665.589294   C748.665710,674.985107 743.828186,682.961487 738.054321,690.384705   C728.747803,702.349487 717.478149,712.141235 704.257935,720.250122  z" />
<path fill="#E47352" opacity="1.000000" stroke="none" d=" M671.144653,551.960510   C671.755127,543.521912 671.856628,535.488647 673.175476,527.660583   C673.923035,523.223206 676.116943,518.764587 678.609009,514.933167   C688.157715,500.252930 707.331238,500.298828 716.710938,515.090881   C719.416321,519.357300 721.583801,524.368347 722.464600,529.311279   C724.934143,543.168945 725.056458,557.195801 722.058167,571.017212   C721.089417,575.482788 719.259766,579.988281 716.854553,583.875793   C707.040527,599.738037 687.384094,599.322632 677.783142,583.304382   C672.062988,573.760864 671.268005,563.185242 671.144653,551.960510  z" />
<path fill="#E47352" opacity="1.000000" stroke="none" d=" M588.923279,549.991211   C589.001648,560.357300 588.504517,570.155029 584.393005,579.347717   C580.233704,588.647034 573.668396,595.325867 562.955200,595.474670   C552.727844,595.616760 545.960266,589.605591 541.541565,580.799622   C535.150879,568.063660 535.251282,554.300842 536.342163,540.700073   C536.954712,533.062561 538.771179,525.195557 541.755005,518.156799   C545.476318,509.378296 552.782349,503.985138 562.917542,504.103912   C572.885925,504.220703 579.234070,510.100891 583.596985,518.346191   C588.753418,528.091125 589.038452,538.786560 588.923279,549.991211  z" />
</svg>